<?xml version="1.0" encoding="utf-8"?>
<!-- Generator: Adobe Illustrator 17.0.0, SVG Export Plug-In . SVG Version: 6.00 Build 0)  -->
<!DOCTYPE svg PUBLIC "-//W3C//DTD SVG 1.1//EN" "http://www.w3.org/Graphics/SVG/1.1/DTD/svg11.dtd">
<svg version="1.1" id="Layer_1" xmlns="http://www.w3.org/2000/svg" xmlns:xlink="http://www.w3.org/1999/xlink" x="0px" y="0px"
	 width="500px" height="500px" viewBox="0 0 500 500" enable-background="new 0 0 500 500" xml:space="preserve">
<path fill="#FFFFFF" d="M253,425c-15.916,0-31.255-2.076-46.018-6.228c-14.763-4.153-28.545-9.976-41.347-17.473
	c-12.802-7.497-24.451-16.493-34.946-26.988c-10.495-10.494-19.491-22.144-26.988-34.946c-7.497-12.803-13.321-26.584-17.473-41.347
	S80,267.916,80,252s2.076-31.255,6.228-46.018s9.976-28.545,17.473-41.347s16.493-24.451,26.988-34.946s22.144-19.491,34.946-26.988
	s26.584-13.321,41.347-17.473S237.084,79,253,79c23.759,0,46.191,4.556,67.297,13.667s39.444,21.452,55.014,37.022
	s27.911,33.908,37.022,55.014S426,228.241,426,252c0,15.916-2.076,31.255-6.228,46.018c-4.153,14.762-9.976,28.544-17.473,41.347
	c-7.497,12.802-16.493,24.451-26.988,34.946c-10.494,10.495-22.144,19.492-34.946,26.988c-12.803,7.497-26.584,13.321-41.348,17.473
	C284.255,422.924,268.916,425,253,425z M359.222,203.214l-27.68-28.026c-0.923-0.923-2.191-1.384-3.805-1.384
	c-1.615,0-2.884,0.461-3.806,1.384L215.286,283.832L182.07,250.27c-2.537-2.076-5.075-2.076-7.612,0l-27.68,28.026
	c-0.923,0.923-1.384,2.191-1.384,3.806c0,1.384,0.461,2.537,1.384,3.46l64.702,64.702c1.153,1.153,2.422,1.731,3.806,1.731h0.346
	c1.615,0,2.768-0.577,3.46-1.731l140.13-139.784c1.153-1.153,1.731-2.422,1.731-3.806
	C360.952,205.29,360.375,204.137,359.222,203.214z"/>
</svg>
